<svg width="58" height="57" viewBox="0 0 58 57" fill="none" xmlns="http://www.w3.org/2000/svg">
<rect x="14" y="16" width="30" height="30" rx="4" fill="#E0FF68" fill-opacity="0.8" style="fill:#E0FF68;fill:color(display-p3 0.8784 1.0000 0.4078);fill-opacity:0.8;"/>
<path d="M6.0957 0L4.88173 1.14497L1.85005 4.17666L0.705078 5.39062L1.58052 6.80513L6.0957 14.352L6.70161 15.4301H13.0388L21.6638 23.9883C13.9574 31.7292 4.15292 41.566 3.80792 41.9132C0.429078 45.2899 0.422609 50.8228 3.87261 54.0421C7.24283 57.367 12.7348 57.4533 15.9368 54.0421L16.0015 53.9731L29.2754 40.6324L42.6183 54.0399L42.8188 54.1758C46.2041 57.367 51.5883 57.4102 54.7472 54.0399V53.9753H54.8119C58.1152 50.5964 58.1497 45.1044 54.7472 41.911L54.6782 41.8463L43.4269 30.6597C50.9975 29.9525 56.9271 23.5592 57.0371 15.8355H57.104C57.1126 15.7924 57.104 15.7428 57.104 15.6997V15.6328C57.3153 13.1402 56.7762 10.7554 55.4868 8.69184L54.0076 6.40406L43.9659 16.4436L40.9342 13.276L51.1764 3.03384L48.2116 1.82203C46.3203 0.990022 44.279 0.553428 42.2129 0.539062C33.9243 0.539063 27.1191 7.34419 27.1191 15.6328C27.1191 16.5341 27.3132 17.3168 27.4555 18.1254C26.5132 19.0699 25.806 19.844 24.6934 20.9566L16.1352 12.3984V5.99653L15.0571 5.39062L7.5102 0.875437L6.0957 0ZM42.2129 4.85156C42.5148 4.85156 42.7261 5.02837 43.0215 5.05425L34.8687 13.207L36.35 14.7574L42.4156 21.0234L43.8969 22.5738L52.4551 14.0156C52.4982 14.5116 52.8518 14.8738 52.7915 15.4301V15.6328C52.7915 21.5711 47.9485 26.4141 42.0102 26.4141C41.2189 26.4141 40.2593 26.2286 39.1812 26.0087L38.0341 25.8082L37.2255 26.6167L12.903 51.0083H12.834V51.0772C11.303 52.7527 8.62283 52.7936 6.83745 51.0083V50.9414H6.76845C5.09305 49.4105 5.05208 46.7302 6.83745 44.9449C7.65467 44.1255 23.4794 28.1649 31.229 20.4175L32.1065 19.5421L31.768 18.3281C31.5634 17.4437 31.4506 16.5404 31.4316 15.6328C31.4316 9.6945 36.2746 4.85156 42.2129 4.85156ZM6.76845 5.39062L11.8227 8.49131V10.6476L11.3526 11.1176H9.19639L6.0957 6.06553L6.76845 5.39062ZM38.3036 31.602L51.7155 44.9449V45.0117H51.7802C53.4577 46.5427 53.4987 49.2229 51.7155 51.0083H51.6465V51.0772C50.1155 52.7527 47.4353 52.7936 45.65 51.0083L32.3071 37.6007L38.3036 31.602Z" fill="black" style="fill:black;fill-opacity:1;"/>
</svg>
