<svg width="72" height="59" viewBox="0 0 72 59" fill="none" xmlns="http://www.w3.org/2000/svg">
<path d="M54.7644 2H5.76889C3.68739 2 2 3.36718 2 5.05367V44.7514C2 46.4379 3.68739 47.8051 5.76889 47.8051H54.7644C56.8459 47.8051 58.5333 46.4379 58.5333 44.7514V5.05367C58.5333 3.36718 56.8459 2 54.7644 2Z" stroke="white" style="stroke:white;stroke-opacity:1;" stroke-width="4" stroke-linejoin="round"/>
<path d="M69.84 11.1608V52.3854C69.84 53.6003 69.2444 54.7653 68.1842 55.6243C67.124 56.4834 65.686 56.9659 64.1867 56.9659H13.3067M2 31.0097L16.4273 20.6181C17.1226 20.1173 18.022 19.8426 18.9522 19.8469C19.8825 19.8511 20.778 20.1339 21.4663 20.641L39.6889 34.0634" stroke="white" style="stroke:white;stroke-opacity:1;" stroke-width="4" stroke-linecap="round" stroke-linejoin="round"/>
<path d="M32.1511 27.956L41.1682 21.867C41.8201 21.4271 42.6361 21.1784 43.4843 21.1609C44.3324 21.1434 45.1629 21.3583 45.8416 21.7708L58.5333 29.4829M2 21.8487V34.0634M58.5333 21.8487V34.0634" stroke="white" style="stroke:white;stroke-opacity:1;" stroke-width="4" stroke-linecap="round" stroke-linejoin="round"/>
</svg>
