<svg width="44" height="52" viewBox="0 0 44 52" fill="none" xmlns="http://www.w3.org/2000/svg">
<path fill-rule="evenodd" clip-rule="evenodd" d="M14.04 15.3641C14.04 8.96255 18.8824 3.5459 25.1172 3.5459C31.3521 3.5459 36.1944 8.96255 36.1944 15.3641C36.1944 21.7656 31.3521 27.1822 25.1172 27.1822C18.8824 27.1822 14.04 21.7656 14.04 15.3641Z" fill="#DEDEDE" style="fill:#DEDEDE;fill:color(display-p3 0.8693 0.8693 0.8693);fill-opacity:1;"/>
<path fill-rule="evenodd" clip-rule="evenodd" d="M24.5778 22.4541C14.55 22.4541 5.87793 30.6268 5.87793 41.5248L5.88415 48.6954C5.88497 49.5708 6.21207 50.4102 6.79376 51.0296C7.37545 51.649 8.16427 51.9977 8.98732 51.9995H40.0812C40.9059 51.9995 41.6968 51.651 42.2799 51.0308C42.863 50.4105 43.1906 49.5692 43.1906 48.6921V41.5248C43.1906 30.6499 34.6242 22.4541 24.5778 22.4541Z" fill="#DEDEDE" style="fill:#DEDEDE;fill:color(display-p3 0.8693 0.8693 0.8693);fill-opacity:1;"/>
<path fill-rule="evenodd" clip-rule="evenodd" d="M19.2872 3.20779C14.9173 3.20779 11.3749 6.79822 11.3749 11.2272C11.3749 15.6563 14.9173 19.2467 19.2872 19.2467C23.657 19.2467 27.1994 15.6563 27.1994 11.2272C27.1994 6.79822 23.657 3.20779 19.2872 3.20779ZM8.20996 11.2272C8.20996 5.02661 13.1694 0 19.2872 0C25.4049 0 30.3644 5.02661 30.3644 11.2272C30.3644 17.4279 25.4049 22.4545 19.2872 22.4545C13.1694 22.4545 8.20996 17.4279 8.20996 11.2272Z" fill="#222222" style="fill:#222222;fill:color(display-p3 0.1333 0.1333 0.1333);fill-opacity:1;"/>
<path fill-rule="evenodd" clip-rule="evenodd" d="M0.0478516 40.5756C0.0478516 30.1057 8.60494 20.0908 19.2872 20.0908C29.9661 20.0908 38.5265 30.1055 38.5265 40.5756V46.8786C38.5265 47.7489 37.8087 48.4544 36.9233 48.4544C36.0378 48.4544 35.32 47.7489 35.32 46.8786V40.5756C35.32 31.519 27.8797 23.2423 19.2872 23.2423C10.6916 23.2423 3.25441 31.5188 3.25441 40.5756V46.8786C3.25441 47.7489 2.5366 48.4544 1.65113 48.4544C0.765664 48.4544 0.0478516 47.7489 0.0478516 46.8786V40.5756Z" fill="#222222" style="fill:#222222;fill:color(display-p3 0.1333 0.1333 0.1333);fill-opacity:1;"/>
</svg>
