<svg width="54" height="84" viewBox="0 0 54 84" fill="none" xmlns="http://www.w3.org/2000/svg">
<path fill-rule="evenodd" clip-rule="evenodd" d="M17.1543 19.1807C17.1543 11.1001 23.3586 4.2627 31.3473 4.2627C39.3359 4.2627 45.5402 11.1001 45.5402 19.1807C45.5402 27.2613 39.3359 34.0987 31.3473 34.0987C23.3586 34.0987 17.1543 27.2613 17.1543 19.1807Z" fill="#E0FF68" style="fill:#E0FF68;fill:color(display-p3 0.8784 1.0000 0.4078);fill-opacity:1;"/>
<path fill-rule="evenodd" clip-rule="evenodd" d="M30.8756 27.7051C18.4436 27.7051 7.69238 38.0214 7.69238 51.778L7.70009 60.8293C7.70111 61.9344 8.10664 62.994 8.82779 63.7758C9.54895 64.5576 10.5269 64.9979 11.5473 65.0001H50.096C51.1184 65.0001 52.0989 64.5602 52.8218 63.7773C53.5448 62.9943 53.9509 61.9324 53.9509 60.8251V51.778C53.9509 38.0507 43.3307 27.7051 30.8756 27.7051Z" fill="#E0FF68" style="fill:#E0FF68;fill:color(display-p3 0.8784 1.0000 0.4078);fill-opacity:1;"/>
<path fill-rule="evenodd" clip-rule="evenodd" d="M24.514 3.95784C19.1224 3.95784 14.7516 8.3878 14.7516 13.8524C14.7516 19.3171 19.1224 23.747 24.514 23.747C29.9056 23.747 34.2763 19.3171 34.2763 13.8524C34.2763 8.3878 29.9056 3.95784 24.514 3.95784ZM10.8467 13.8524C10.8467 6.20194 16.9657 0 24.514 0C32.0622 0 38.1813 6.20194 38.1813 13.8524C38.1813 21.5029 32.0622 27.7049 24.514 27.7049C16.9657 27.7049 10.8467 21.5029 10.8467 13.8524Z" fill="#222222" style="fill:#222222;fill:color(display-p3 0.1333 0.1333 0.1333);fill-opacity:1;"/>
<path fill-rule="evenodd" clip-rule="evenodd" d="M0.333008 50.9694C0.333008 37.9893 11.0878 25.5732 24.5136 25.5732C37.9351 25.5732 48.6942 37.989 48.6942 50.9694V58.7836C48.6942 59.8625 47.792 60.7371 46.6791 60.7371C45.5663 60.7371 44.6641 59.8625 44.6641 58.7836V50.9694C44.6641 39.7414 35.313 29.4803 24.5136 29.4803C13.7104 29.4803 4.36311 39.7411 4.36311 50.9694V58.7836C4.36311 59.8625 3.46094 60.7371 2.34806 60.7371C1.23518 60.7371 0.333008 59.8625 0.333008 58.7836V50.9694Z" fill="#222222" style="fill:#222222;fill:color(display-p3 0.1333 0.1333 0.1333);fill-opacity:1;"/>
<path d="M23.6607 73.376C24.9936 73.376 25.6118 72.4437 25.6118 71.2007V70.5402C25.6505 67.9762 26.5779 66.908 29.669 64.7724C32.9728 62.5183 35.0781 59.9162 35.0781 56.1671C35.0781 50.3405 30.3647 47 24.5105 47C20.1442 47 16.2996 49.0784 14.6576 52.8266C14.2521 53.7399 14.0781 54.6332 14.0781 55.3707C14.0781 56.4779 14.7153 57.2552 15.8941 57.2552C16.8791 57.2552 17.5361 56.6726 17.8262 55.7205C18.8302 52.0302 21.2455 50.6322 24.3753 50.6322C28.1424 50.6322 31.0794 52.7686 31.0794 56.1481C31.0794 58.9251 29.3599 60.4789 26.887 62.2274C23.8536 64.3448 21.6321 66.6171 21.6321 70.0355V71.2587C21.6321 72.5017 22.3088 73.376 23.6607 73.376ZM23.6598 84C25.1856 84 26.4031 82.7569 26.4031 81.2421C26.4051 80.8793 26.3355 80.5198 26.1983 80.1843C26.0612 79.8488 25.8592 79.544 25.604 79.2875C25.3489 79.031 25.0457 78.8279 24.712 78.69C24.3783 78.5521 24.0207 78.4822 23.6598 78.4841C22.153 78.4841 20.8968 79.7081 20.8968 81.2421C20.8968 82.7569 22.153 84 23.6598 84Z" fill="#222222" style="fill:#222222;fill:color(display-p3 0.1333 0.1333 0.1333);fill-opacity:1;"/>
</svg>
