<svg width="26" height="26" viewBox="0 0 26 26" fill="none" xmlns="http://www.w3.org/2000/svg">
<path d="M17.7313 5.51763C17.8171 5.43176 17.8842 5.33074 17.9288 5.22035C17.9733 5.10996 17.9944 4.99236 17.9909 4.87426C17.9873 4.75615 17.9592 4.63986 17.9082 4.53203C17.8571 4.4242 17.784 4.32693 17.6932 4.24578C17.6024 4.16463 17.4955 4.10119 17.3787 4.05908C17.262 4.01697 17.1376 3.99702 17.0126 4.00036C16.8877 4.0037 16.7647 4.03027 16.6506 4.07855C16.5365 4.12684 16.4336 4.19589 16.3478 4.28176L8.26008 12.377C8.09306 12.544 8 12.7651 8 12.9949C8 13.2248 8.09306 13.4459 8.26008 13.6129L16.3478 21.709C16.4331 21.7968 16.5359 21.8676 16.6504 21.9175C16.7649 21.9674 16.8887 21.9952 17.0147 21.9994C17.1407 22.0037 17.2663 21.9842 17.3842 21.9421C17.5022 21.9001 17.6101 21.8363 17.7018 21.7545C17.7934 21.6727 17.867 21.5745 17.9181 21.4656C17.9693 21.3567 17.997 21.2392 17.9998 21.1201C18.0025 21.001 17.9802 20.8825 17.9341 20.7716C17.888 20.6607 17.8191 20.5596 17.7313 20.4741L10.2601 12.9949L17.7313 5.51763Z" fill="black" style="fill:black;fill-opacity:1;"/>
</svg>
