<svg width="32" height="28" viewBox="0 0 32 28" fill="none" xmlns="http://www.w3.org/2000/svg">
<path fill-rule="evenodd" clip-rule="evenodd" d="M8.63856 5.35375C7.34693 6.62637 6.35958 8.17442 5.75029 9.88224C5.141 11.5901 4.92553 13.4135 5.11997 15.2163C5.13806 15.4584 5.06117 15.6981 4.90557 15.8846C4.74997 16.071 4.5279 16.1895 4.28641 16.2151C4.04492 16.2406 3.80298 16.171 3.61186 16.0212C3.42075 15.8714 3.29547 15.6531 3.26257 15.4125C3.03829 13.3303 3.28734 11.2243 3.99109 9.25185C4.69485 7.27939 5.83514 5.49141 7.3268 4.02143C12.8149 -1.39194 21.6684 -1.30411 27.1004 4.20456C32.5325 9.71136 32.497 18.5648 27.007 23.9782C24.4659 26.4887 21.0544 27.9224 17.4827 27.9808C16.1324 28.0048 14.7856 27.8343 13.4839 27.4744C13.245 27.4085 13.0421 27.2504 12.9198 27.0348C12.7975 26.8193 12.7658 26.5641 12.8317 26.3252C12.8976 26.0863 13.0557 25.8834 13.2713 25.7611C13.4868 25.6388 13.7421 25.6071 13.9809 25.673C15.1099 25.9853 16.2779 26.1332 17.4491 26.1122C20.5415 26.0628 23.4955 24.8217 25.6953 22.6478C30.4434 17.965 30.4826 10.2962 25.77 5.51632C21.0574 0.736414 13.3867 0.671012 8.63856 5.35375Z" fill="#222222" style="fill:#222222;fill:color(display-p3 0.1333 0.1333 0.1333);fill-opacity:1;"/>
<path fill-rule="evenodd" clip-rule="evenodd" d="M4.88268 16.4032C4.80097 16.4947 4.70203 16.5693 4.59151 16.6226C4.48099 16.6759 4.36105 16.7069 4.23854 16.7138C4.11604 16.7207 3.99337 16.7035 3.87753 16.663C3.7617 16.6225 3.65497 16.5596 3.56344 16.4779L0.349431 13.619C0.250629 13.5396 0.168991 13.4411 0.109481 13.3292C0.0499698 13.2174 0.0138299 13.0946 0.00325825 12.9683C-0.00731344 12.8421 0.0079039 12.715 0.0479852 12.5948C0.0880665 12.4746 0.152174 12.3638 0.23641 12.2692C0.320646 12.1745 0.42325 12.098 0.537984 12.0443C0.652717 11.9905 0.777183 11.9607 0.903812 11.9566C1.03044 11.9524 1.15659 11.9741 1.27459 12.0202C1.39258 12.0664 1.49996 12.136 1.59019 12.225L4.8042 15.0839C4.896 15.1654 4.97085 15.2641 5.02448 15.3745C5.0781 15.4849 5.10946 15.6048 5.11674 15.7273C5.12403 15.8498 5.10711 15.9726 5.06695 16.0885C5.02679 16.2045 4.96418 16.3114 4.88268 16.4032Z" fill="#222222" style="fill:#222222;fill:color(display-p3 0.1333 0.1333 0.1333);fill-opacity:1;"/>
<path fill-rule="evenodd" clip-rule="evenodd" d="M3.43589 16.2848C3.50951 16.3829 3.60173 16.4656 3.70731 16.5281C3.81289 16.5906 3.92974 16.6317 4.0512 16.6491C4.17266 16.6665 4.29635 16.6597 4.41521 16.6293C4.53407 16.5988 4.64576 16.5452 4.74392 16.4716L8.48114 13.6687C8.67938 13.52 8.81043 13.2987 8.84547 13.0534C8.88052 12.8081 8.81668 12.5589 8.668 12.3607C8.51933 12.1624 8.29799 12.0314 8.05269 11.9963C7.80738 11.9613 7.55821 12.0251 7.35997 12.1738L3.62275 14.9767C3.42452 15.1254 3.29346 15.3467 3.25842 15.5921C3.22337 15.8374 3.28721 16.0865 3.43589 16.2848ZM16.8525 7.31543C17.1003 7.31543 17.338 7.41387 17.5132 7.58908C17.6884 7.7643 17.7868 8.00194 17.7868 8.24974V14.7899C17.7868 15.0377 17.6884 15.2753 17.5132 15.4505C17.338 15.6257 17.1003 15.7242 16.8525 15.7242C16.6047 15.7242 16.3671 15.6257 16.1919 15.4505C16.0167 15.2753 15.9182 15.0377 15.9182 14.7899V8.24974C15.9182 8.00194 16.0167 7.7643 16.1919 7.58908C16.3671 7.41387 16.6047 7.31543 16.8525 7.31543Z" fill="#222222" style="fill:#222222;fill:color(display-p3 0.1333 0.1333 0.1333);fill-opacity:1;"/>
<path fill-rule="evenodd" clip-rule="evenodd" d="M23.3924 14.7908C23.3924 15.0385 23.294 15.2762 23.1188 15.4514C22.9435 15.6266 22.7059 15.7251 22.4581 15.7251H16.8523C16.6045 15.7251 16.3668 15.6266 16.1916 15.4514C16.0164 15.2762 15.918 15.0385 15.918 14.7908C15.918 14.543 16.0164 14.3053 16.1916 14.1301C16.3668 13.9549 16.6045 13.8564 16.8523 13.8564H22.4581C22.7059 13.8564 22.9435 13.9549 23.1188 14.1301C23.294 14.3053 23.3924 14.543 23.3924 14.7908Z" fill="#222222" style="fill:#222222;fill:color(display-p3 0.1333 0.1333 0.1333);fill-opacity:1;"/>
</svg>
