<svg width="74" height="19" viewBox="0 0 74 19" fill="none" xmlns="http://www.w3.org/2000/svg">
<path d="M0.171875 6.28125V4.32812H6.36328C6.46094 4.11328 6.5 3.87891 6.5 3.66406H0.171875V0.929688H10.4648V2.64844C10.4648 3.39062 10.3281 3.99609 10.1328 4.32812H10.5039V6.28125H4.19531C4.17578 6.35938 4.15625 6.4375 4.15625 6.51562C4.15625 6.88672 4.60547 7.00391 6.94922 7.00391C8.70703 7.00391 9.83984 6.94531 10.9922 6.78906L11.3633 9.38672C10.4062 9.5625 8.76562 9.73828 6.44141 9.73828C1.79297 9.73828 0.25 8.95703 0.25 7.39453C0.25 6.98438 0.367188 6.55469 0.523438 6.28125H0.171875ZM1.1875 14.8164V13.2734H12.3789V12.6289H1.22656V10.4805H16.2852V15.3047H5.09375V15.4609C5.09375 15.793 5.5625 16.0273 9.17578 16.0273C12.0078 16.0273 14.5664 15.8906 16.3828 15.6367V17.8633C14.5078 18.1367 12.1055 18.2539 8.88281 18.2539C2.02734 18.2539 1.1875 17.6484 1.1875 14.8164ZM12.3789 9.85547V0.734375H16.2852V9.85547H12.3789ZM31.7148 17.8633V0.734375H35.0352V17.8633H31.7148ZM18.7266 10.3047V7.17969H22.6523C22.8086 6.26172 22.9062 5.36328 22.9062 4.44531H18.7266V1.125H26.2852V3.9375C26.2852 4.85547 26.1289 6.33984 25.8945 7.17969H26.3242V10.3047H22.2812C22.1836 10.6367 22.125 11.125 22.125 11.6328C22.125 13 22.9062 14.0547 24.7227 14.0547C25.4258 14.0547 26.1094 13.9766 26.832 13.8203L26.9883 17.0039C26.4219 17.1992 25.4062 17.375 24.0195 17.375C20.9141 17.375 18.8047 15.8125 18.8047 12.6289C18.8047 11.6914 18.9805 10.793 19.0977 10.3047H18.7266ZM26.6367 10.1094V6.82812H27.7891V0.8125H30.9141V17.7852H27.7891V10.1094H26.6367ZM49.8789 17.8633V0.734375H53.7852V17.8633H49.8789ZM37.9648 13.293V5.08984C37.9648 2.31641 39.7812 0.929688 42.9648 0.929688C46.1484 0.929688 47.9648 2.31641 47.9648 5.08984V13.293C47.9648 16.0859 46.1484 17.4531 42.9648 17.4531C39.7812 17.4531 37.9648 16.0859 37.9648 13.293ZM41.8711 12.5703C41.8711 13.5469 42.2812 14.0352 43.043 14.0352C43.7852 14.0352 44.2148 13.5469 44.2148 12.5703V5.8125C44.2148 4.83594 43.7852 4.34766 43.043 4.34766C42.2812 4.34766 41.8711 4.83594 41.8711 5.8125V12.5703ZM63.2188 14.1719V12.6289H56.1289V9.54297H73.1211V12.6289H67.125V14.1719H63.2188ZM56.7148 5.5C56.7148 4.60156 56.832 3.68359 56.9492 3.17578H56.7148V0.734375H72.3398V3.17578H60.6992C60.6797 3.33203 60.6797 3.52734 60.6602 3.76172H72.1445V5.91016H60.6406C60.8164 6.35938 61.9102 6.51562 65.9727 6.51562C68.1211 6.51562 70.3281 6.49609 72.3398 6.45703V8.87891C70.4453 8.91797 67.9453 8.95703 65.582 8.95703C59.0977 8.95703 56.7148 8.21484 56.7148 5.5ZM56.8125 14.6797V13.1953H60.7188V14.0742C60.7188 14.7188 61.2461 15.0312 64.7031 15.0312C67.9453 15.0312 70.2891 14.7969 72.3984 14.3672V17.3945C70.3867 17.7461 67.5156 18.0586 64.7031 18.0586C58.8047 18.0586 56.8125 16.8867 56.8125 14.6797Z" fill="#222222" style="fill:#222222;fill:color(display-p3 0.1333 0.1333 0.1333);fill-opacity:1;"/>
</svg>
