<svg width="36" height="36" viewBox="0 0 36 36" fill="none" xmlns="http://www.w3.org/2000/svg">
<rect width="36" height="36" rx="6" fill="#B4B4B4" style="fill:#B4B4B4;fill:color(display-p3 0.7062 0.7062 0.7062);fill-opacity:1;"/>
<rect width="36" height="36" rx="6" fill="#B4B4B4" style="fill:#B4B4B4;fill:color(display-p3 0.7062 0.7062 0.7062);fill-opacity:1;"/>
<rect width="36" height="36" rx="6" fill="#B4B4B4" style="fill:#B4B4B4;fill:color(display-p3 0.7062 0.7062 0.7062);fill-opacity:1;"/>
<path d="M26 14C24.597 11.04 21.537 9 18 9C16.8181 9 15.6478 9.23279 14.5558 9.68508C13.4639 10.1374 12.4718 10.8003 11.636 11.636C10.8003 12.4718 10.1374 13.4639 9.68508 14.5558C9.23279 15.6478 9 16.8181 9 18C9 19.1819 9.23279 20.3522 9.68508 21.4442C10.1374 22.5361 10.8003 23.5282 11.636 24.364C12.4718 25.1997 13.4639 25.8626 14.5558 26.3149C15.6478 26.7672 16.8181 27 18 27C20.3869 27 22.6761 26.0518 24.364 24.364C26.0518 22.6761 27 20.3869 27 18M27 9V15H21" stroke="white" style="stroke:white;stroke-opacity:1;" stroke-width="2"/>
</svg>
