<svg width="26" height="26" viewBox="0 0 26 26" fill="none" xmlns="http://www.w3.org/2000/svg">
<path d="M10.1881 8.09607C10.128 8.03405 10.081 7.96109 10.0499 7.88137C10.0187 7.80164 10.0039 7.7167 10.0064 7.63141C10.0089 7.54611 10.0285 7.46212 10.0643 7.38424C10.1 7.30636 10.1512 7.23612 10.2148 7.17751C10.2783 7.1189 10.3531 7.07308 10.4349 7.04267C10.5166 7.01226 10.6037 6.99785 10.6912 7.00026C10.7786 7.00267 10.8647 7.02186 10.9446 7.05673C11.0244 7.0916 11.0965 7.14147 11.1565 7.20349L16.8179 13.0501C16.9349 13.1707 17 13.3304 17 13.4963C17 13.6623 16.9349 13.822 16.8179 13.9426L11.1565 19.7899C11.0969 19.8532 11.0248 19.9044 10.9447 19.9404C10.8646 19.9764 10.7779 19.9965 10.6897 19.9996C10.6015 20.0026 10.5136 19.9886 10.431 19.9582C10.3485 19.9278 10.2729 19.8818 10.2088 19.8227C10.1446 19.7636 10.0931 19.6927 10.0573 19.614C10.0215 19.5354 10.0021 19.4506 10.0002 19.3645C9.99824 19.2785 10.0139 19.1929 10.0461 19.1128C10.0784 19.0327 10.1267 18.9597 10.1881 18.8979L15.4179 13.4963L10.1881 8.09607Z" fill="#666666" style="fill:#666666;fill:color(display-p3 0.3984 0.3984 0.3984);fill-opacity:1;"/>
</svg>
