<svg width="45" height="39" viewBox="0 0 45 39" fill="none" xmlns="http://www.w3.org/2000/svg">
<path fill-rule="evenodd" clip-rule="evenodd" d="M12.8539 7.43641C11.0542 9.20958 9.6785 11.3665 8.82956 13.7461C7.98063 16.1256 7.6804 18.6663 7.95132 21.1782C7.97654 21.5156 7.86939 21.8495 7.65259 22.1093C7.4358 22.3691 7.12638 22.5342 6.7899 22.5698C6.45342 22.6053 6.11632 22.5085 5.85003 22.2997C5.58374 22.091 5.40919 21.7868 5.36335 21.4515C5.05086 18.5503 5.39786 15.616 6.37843 12.8677C7.35899 10.1195 8.94779 7.62821 11.0262 5.58005C18.6729 -1.96256 31.0087 -1.84019 38.5774 5.8352C46.146 13.508 46.0965 25.8438 38.4472 33.3864C34.9065 36.8844 30.1532 38.882 25.1767 38.9633C23.2952 38.9968 21.4187 38.7592 19.605 38.2577C19.2722 38.1659 18.9895 37.9456 18.819 37.6453C18.6486 37.345 18.6045 36.9893 18.6963 36.6565C18.7882 36.3237 19.0085 36.041 19.3088 35.8706C19.609 35.7002 19.9647 35.656 20.2976 35.7479C21.8705 36.1829 23.498 36.389 25.1298 36.3597C29.4385 36.2909 33.5544 34.5617 36.6195 31.5326C43.2352 25.008 43.2899 14.3229 36.7236 7.66292C30.1574 1.00294 19.4696 0.911809 12.8539 7.43641Z" fill="#222222" style="fill:#222222;fill:color(display-p3 0.1333 0.1333 0.1333);fill-opacity:1;"/>
<path fill-rule="evenodd" clip-rule="evenodd" d="M7.62057 22.8321C7.50671 22.9596 7.36886 23.0635 7.21486 23.1377C7.06087 23.212 6.89376 23.2552 6.72307 23.2648C6.55238 23.2745 6.38146 23.2505 6.22006 23.1941C6.05867 23.1377 5.90996 23.0501 5.78243 22.9362L1.30425 18.9527C1.16659 18.8422 1.05284 18.7048 0.969925 18.549C0.887007 18.3932 0.836652 18.2221 0.821923 18.0462C0.807193 17.8702 0.828396 17.6932 0.884242 17.5257C0.940088 17.3582 1.02941 17.2039 1.14678 17.072C1.26415 16.9402 1.40711 16.8336 1.56697 16.7587C1.72683 16.6838 1.90025 16.6422 2.07669 16.6364C2.25313 16.6307 2.42889 16.6609 2.5933 16.7252C2.75771 16.7894 2.90732 16.8865 3.03304 17.0104L7.51122 20.9939C7.63912 21.1074 7.74341 21.245 7.81813 21.3988C7.89285 21.5526 7.93653 21.7196 7.94669 21.8903C7.95684 22.061 7.93327 22.2321 7.87731 22.3936C7.82136 22.5552 7.73411 22.7042 7.62057 22.8321Z" fill="#222222" style="fill:#222222;fill:color(display-p3 0.1333 0.1333 0.1333);fill-opacity:1;"/>
<path fill-rule="evenodd" clip-rule="evenodd" d="M5.60509 22.6672C5.70766 22.8039 5.83617 22.9191 5.98327 23.0062C6.13037 23.0933 6.29319 23.1506 6.46243 23.1748C6.63166 23.199 6.804 23.1896 6.96961 23.1472C7.13521 23.1047 7.29084 23.0301 7.4276 22.9275L12.6348 19.0221C12.911 18.815 13.0936 18.5066 13.1424 18.1648C13.1912 17.823 13.1023 17.4758 12.8951 17.1996C12.688 16.9234 12.3796 16.7408 12.0378 16.692C11.696 16.6432 11.3488 16.7321 11.0726 16.9393L5.86545 20.8446C5.58924 21.0518 5.40664 21.3602 5.35782 21.702C5.30899 22.0438 5.39794 22.391 5.60509 22.6672ZM24.2989 10.1699C24.6441 10.1699 24.9753 10.3071 25.2194 10.5512C25.4635 10.7953 25.6007 11.1265 25.6007 11.4717V20.5843C25.6007 20.9295 25.4635 21.2607 25.2194 21.5048C24.9753 21.7489 24.6441 21.8861 24.2989 21.8861C23.9536 21.8861 23.6225 21.7489 23.3784 21.5048C23.1342 21.2607 22.9971 20.9295 22.9971 20.5843V11.4717C22.9971 11.1265 23.1342 10.7953 23.3784 10.5512C23.6225 10.3071 23.9536 10.1699 24.2989 10.1699Z" fill="#222222" style="fill:#222222;fill:color(display-p3 0.1333 0.1333 0.1333);fill-opacity:1;"/>
<path fill-rule="evenodd" clip-rule="evenodd" d="M33.4114 20.585C33.4114 20.9303 33.2743 21.2614 33.0301 21.5055C32.786 21.7496 32.4549 21.8868 32.1096 21.8868H24.2989C23.9536 21.8868 23.6225 21.7496 23.3784 21.5055C23.1342 21.2614 22.9971 20.9303 22.9971 20.585C22.9971 20.2397 23.1342 19.9086 23.3784 19.6645C23.6225 19.4204 23.9536 19.2832 24.2989 19.2832H32.1096C32.4549 19.2832 32.786 19.4204 33.0301 19.6645C33.2743 19.9086 33.4114 20.2397 33.4114 20.585Z" fill="#222222" style="fill:#222222;fill:color(display-p3 0.1333 0.1333 0.1333);fill-opacity:1;"/>
</svg>
